<?xml version="1.0" encoding="UTF-8"?>
<svg version="1.1" xmlns="http://www.w3.org/2000/svg" width="1024" height="1024">
<path d="M0 0 C1.93191035 0.0010461 1.93191035 0.0010461 3.9028492 0.00211334 C7.52100362 0.0042926 11.13911864 0.01291947 14.75725961 0.02265263 C18.73776015 0.03237631 22.71826754 0.03662676 26.69877625 0.04168701 C33.91595324 0.05167793 41.13311471 0.06582829 48.35028076 0.08178711 C56.77642506 0.10023159 65.20256437 0.11355234 73.62872314 0.12329102 C100.62143134 0.15479078 127.61396991 0.20609694 154.60656929 0.29036713 C167.59139471 0.33046481 180.57615387 0.36279384 193.56103516 0.37744141 C205.11394954 0.39048698 216.6667337 0.41744489 228.21957463 0.46105838 C234.26772645 0.48344737 240.31571942 0.49936898 246.3639164 0.49832916 C252.00464804 0.49757903 257.6450196 0.51567005 263.28565788 0.54761314 C265.33331278 0.55603536 267.38100841 0.55791528 269.42867279 0.552248 C295.24155816 0.49036074 317.44534787 6.71586757 340.47192383 18.10644531 C341.54829102 18.6259375 342.6246582 19.14542969 343.73364258 19.68066406 C346.10150952 20.91357623 348.11634902 22.16818069 350.22192383 23.79394531 C350.8999707 24.31730469 351.57801758 24.84066406 352.27661133 25.37988281 C353.00106445 25.94964844 353.72551758 26.51941406 354.47192383 27.10644531 C355.25825195 27.71746094 356.04458008 28.32847656 356.85473633 28.95800781 C388.04681467 53.50099108 407.53212341 84.84062119 412.79101562 124.51367188 C416.79759781 161.0895403 408.98091474 198.36544058 386.35083008 227.87207031 C384.10425228 230.65985143 381.80451618 233.39035896 379.47192383 236.10644531 C378.77325195 236.94046875 378.07458008 237.77449219 377.35473633 238.63378906 C367.45811544 250.10734405 355.45515545 259.36353486 342.47192383 267.10644531 C341.81192383 267.10644531 341.15192383 267.10644531 340.47192383 267.10644531 C340.14192383 267.76644531 339.81192383 268.42644531 339.47192383 269.10644531 C316.02193525 280.6781717 292.30931555 284.0392487 266.47192383 285.10644531 C266.98143592 289.9699698 269.35522085 293.35279546 272.03442383 297.29394531 C276.98929478 304.75996117 281.73365799 312.33772488 286.40942383 319.98144531 C291.07400267 327.59308059 295.7538209 335.1920497 300.53442383 342.73144531 C311.43246743 359.91853726 322.17220252 377.2045564 332.87036133 394.51660156 C335.0593097 398.05629125 337.25282546 401.59314131 339.4465332 405.12988281 C341.07302814 407.75537287 342.69447253 410.38393423 344.31567383 413.01269531 C346.39609175 416.38245867 348.50168802 419.73433232 350.62817383 423.07519531 C351.12881348 423.87094971 351.62945313 424.6667041 352.14526367 425.48657227 C353.07375155 426.96237767 354.01079528 428.43285659 354.95874023 429.89624023 C358.71578144 435.90995987 362.25042048 442.97915189 361.09692383 450.23144531 C359.25488415 455.86053552 355.06380084 460.61611603 349.97192383 463.54394531 C344.61134228 464.75007616 339.35554133 465.23285161 333.86914062 465.25170898 C331.96632576 465.26127876 331.96632576 465.26127876 330.02507019 465.27104187 C328.65709471 465.27257106 327.28911872 465.27368475 325.92114258 465.27441406 C324.49778715 465.27763342 323.07443204 465.28099798 321.65107727 465.28450012 C318.67476638 465.2904677 315.69848442 465.29234249 312.72216797 465.29174805 C308.93316623 465.2916466 305.14435258 465.30529185 301.35539532 465.32252026 C298.41690745 465.33371147 295.47846403 465.33566508 292.53995705 465.33513832 C291.14429896 465.336308 289.74863933 465.34067196 288.35300255 465.34847069 C273.89544276 465.42169543 261.48935616 464.1935492 250.65942383 453.79394531 C247.40822753 450.3589358 244.76532117 446.85279544 242.44458008 442.73535156 C241.45383319 440.92529436 241.45383319 440.92529436 239.47192383 439.10644531 C238.62776972 437.62402834 237.82152731 436.11992619 237.03442383 434.60644531 C234.08110766 429.11752767 230.94065244 423.75635068 227.72192383 418.41894531 C227.23796143 417.60425781 226.75399902 416.78957031 226.25537109 415.95019531 C225.79573975 415.19351562 225.3361084 414.43683594 224.86254883 413.65722656 C224.45037109 412.97313721 224.03819336 412.28904785 223.61352539 411.58422852 C223.23679687 411.09656006 222.86006836 410.6088916 222.47192383 410.10644531 C221.81192383 410.10644531 221.15192383 410.10644531 220.47192383 410.10644531 C220.38942383 409.42710937 220.30692383 408.74777344 220.22192383 408.04785156 C219.26684312 404.30214443 217.4645332 401.31163366 215.47192383 398.04394531 C215.03823486 397.31989502 214.6045459 396.59584473 214.15771484 395.84985352 C212.60430438 393.26348468 211.03853637 390.68483785 209.47192383 388.10644531 C208.18926658 385.98671728 206.90672088 383.86692174 205.62426758 381.74707031 C200.04921746 372.54160479 194.45436593 363.34819813 188.84217834 354.16532898 C187.26356949 351.58137092 185.68719639 348.99605293 184.1111145 346.41055298 C183.35564742 345.17269115 182.59904679 343.93552037 181.84127808 342.69906616 C180.78838903 340.98103468 179.73943799 339.26059167 178.69067383 337.54003906 C178.0919043 336.56091553 177.49313477 335.58179199 176.8762207 334.57299805 C175.47192383 332.10644531 175.47192383 332.10644531 174.47192383 329.10644531 C173.81192383 328.77644531 173.15192383 328.44644531 172.47192383 328.10644531 C171.5201723 326.51547415 170.63357243 324.8852583 169.78051758 323.23925781 C166.62219791 317.30868842 163.13550585 311.65086806 159.53442383 305.98144531 C153.62739704 296.60834817 147.86630671 287.15975918 142.19360352 277.64331055 C138.87253489 272.08134781 135.52139204 266.5406954 132.11254883 261.03222656 C131.74979355 260.4456427 131.38703827 259.85905884 131.01329041 259.25469971 C129.2636873 256.42754204 127.50954021 253.60340598 125.74951172 250.78271484 C113.09848394 230.38553423 113.09848394 230.38553423 116.00317383 217.80566406 C118.2503153 210.53909246 121.88508887 205.28448747 127.47192383 200.10644531 C128.21442383 199.40519531 128.95692383 198.70394531 129.72192383 197.98144531 C142.52725786 189.25053575 162.05368957 191.97385976 176.82920647 192.03128052 C180.19950363 192.04423449 183.56976066 192.05060763 186.94007874 192.05541992 C195.3057972 192.06867403 203.67147692 192.09289397 212.03717041 192.11682129 C219.1284572 192.13667914 226.2197295 192.15226433 233.31103706 192.16238403 C236.60321339 192.16878291 239.89532808 192.18128722 243.18748474 192.1940918 C272.46748785 192.954287 272.46748785 192.954287 298.47192383 181.10644531 C299.30594727 180.48898437 300.1399707 179.87152344 300.99926758 179.23535156 C309.83022521 171.63207841 314.22041832 159.5332556 315.40942383 148.23144531 C315.94759704 135.92073319 312.51604103 124.79491792 304.87817383 115.07910156 C297.1341047 106.73231008 286.59337316 101.35024084 275.18998337 100.83503151 C269.78271839 100.69758997 264.37593831 100.73500621 258.9675293 100.76586914 C256.88726311 100.76671624 254.80699602 100.76623866 252.72673035 100.76454163 C247.10138955 100.76368347 241.47624198 100.7812802 235.85094595 100.8022635 C229.96396466 100.82106025 224.07697859 100.82278311 218.18997192 100.82633972 C207.05194067 100.83565137 195.91399812 100.86025328 184.77600586 100.89038819 C172.09162634 100.92395957 159.4072425 100.9404251 146.72282958 100.9554745 C120.63914522 100.98680358 94.5555395 101.03954699 68.47192383 101.10644531 C68.47230355 101.6815047 68.47268327 102.25656408 68.4730745 102.84904951 C68.49563968 137.22307222 68.5127034 171.5970932 68.52298916 205.97112175 C68.5242393 210.13366126 68.52553367 214.29620075 68.52685547 218.45874023 C68.52724893 219.70134274 68.52724893 219.70134274 68.52765035 220.96904833 C68.53195668 234.23865493 68.53981526 247.50825703 68.54907662 260.77786099 C68.55855549 274.4772763 68.56400888 288.17668931 68.56601232 301.87610775 C68.56724036 309.53560335 68.57013046 317.19508961 68.57765388 324.85458183 C68.60489422 353.71055633 68.59043155 382.5675995 68.20184982 411.42146122 C68.1699335 413.89649919 68.14258435 416.371601 68.1201936 418.84674346 C68.08775357 422.24004314 68.03663421 425.63255333 67.98020935 429.02552795 C67.9741245 430.00692989 67.96803965 430.98833183 67.96177042 431.99947321 C67.73877323 442.60299654 65.38462253 450.28886591 57.93286133 457.96972656 C49.36085527 465.41240484 38.83630302 465.25964856 28.01098633 465.27441406 C27.13977142 465.27774246 26.26855652 465.28107086 25.37094116 465.28450012 C23.54067507 465.28952827 21.71039994 465.29190973 19.88012695 465.29174805 C17.11109021 465.29393413 14.34245285 465.31213292 11.57348633 465.33105469 C-14.36708617 465.41674712 -14.36708617 465.41674712 -24.52807617 457.10644531 C-32.62744564 448.33632061 -32.78282457 438.30874103 -32.54321289 426.99511719 C-32.42785064 422.97677882 -32.42785064 422.97677882 -33.08666992 419.03613281 C-33.63056365 416.65840273 -33.18583597 414.7141868 -32.7902832 412.33642578 C-32.19975142 407.31415643 -32.42826021 402.21808147 -32.46557617 397.16894531 C-32.47008789 396.00814453 -32.47459961 394.84734375 -32.47924805 393.65136719 C-32.4909697 390.80300597 -32.50737857 387.95475309 -32.52807617 385.10644531 C-33.18807617 385.10644531 -33.84807617 385.10644531 -34.52807617 385.10644531 C-34.19807617 384.11644531 -33.86807617 383.12644531 -33.52807617 382.10644531 C-33.30115934 378.75608509 -33.34292885 375.40121021 -33.34057617 372.04394531 C-33.32833008 371.12033203 -33.31608398 370.19671875 -33.3034668 369.24511719 C-33.3015332 368.36275391 -33.29959961 367.48039062 -33.29760742 366.57128906 C-33.29349854 365.76296631 -33.28938965 364.95464355 -33.28515625 364.12182617 C-33.34525365 361.87766228 -33.34525365 361.87766228 -35.52807617 360.10644531 C-34.53807617 360.10644531 -33.54807617 360.10644531 -32.52807617 360.10644531 C-32.52807617 341.95644531 -32.52807617 323.80644531 -32.52807617 305.10644531 C-33.18807617 304.77644531 -33.84807617 304.44644531 -34.52807617 304.10644531 C-33.86807617 304.10644531 -33.20807617 304.10644531 -32.52807617 304.10644531 C-32.52807617 301.79644531 -32.52807617 299.48644531 -32.52807617 297.10644531 C-33.18807617 296.77644531 -33.84807617 296.44644531 -34.52807617 296.10644531 C-33.86807617 296.10644531 -33.20807617 296.10644531 -32.52807617 296.10644531 C-32.69557373 294.88320557 -32.86307129 293.65996582 -33.03564453 292.3996582 C-33.69894386 286.39307765 -33.55071574 280.44790323 -33.40698242 274.41503906 C-33.38337143 273.22918716 -33.35976044 272.04333527 -33.33543396 270.82154846 C-33.2593257 267.06220932 -33.175076 263.30310425 -33.09057617 259.54394531 C-33.03730252 256.9834096 -32.98456256 254.42286273 -32.93237305 251.86230469 C-32.80378269 245.61020915 -32.66852116 239.35828519 -32.52807617 233.10644531 C-33.18807617 233.10644531 -33.84807617 233.10644531 -34.52807617 233.10644531 C-34.19807617 232.44644531 -33.86807617 231.78644531 -33.52807617 231.10644531 C-33.43905125 229.74799338 -33.41047485 228.38528557 -33.41455078 227.02392578 C-33.41462631 226.18320526 -33.41470184 225.34248474 -33.41477966 224.47628784 C-33.41994095 223.56791168 -33.42510223 222.65953552 -33.43041992 221.72363281 C-33.43183487 220.79422882 -33.43324982 219.86482483 -33.43470764 218.90725708 C-33.44031564 215.93195407 -33.4528695 212.95672567 -33.46557617 209.98144531 C-33.47059014 207.96712348 -33.47515323 205.95280047 -33.47924805 203.93847656 C-33.49028768 198.9944373 -33.50755768 194.05045396 -33.52807617 189.10644531 C-33.85807617 189.10644531 -34.18807617 189.10644531 -34.52807617 189.10644531 C-34.52807617 187.12644531 -34.52807617 185.14644531 -34.52807617 183.10644531 C-33.86807617 183.10644531 -33.20807617 183.10644531 -32.52807617 183.10644531 C-32.85807617 156.37644531 -33.18807617 129.64644531 -33.52807617 102.10644531 C-52.30050535 101.8965667 -52.30050535 101.8965667 -71.07324219 101.71850586 C-73.43450493 101.68620739 -75.79575329 101.65283247 -78.15698242 101.61816406 C-79.37349487 101.61192017 -80.59000732 101.60567627 -81.84338379 101.59924316 C-89.7405349 101.46542064 -94.92996709 100.82501662 -101.34057617 95.98144531 C-104.22775684 92.186865 -105.32263159 88.8645418 -105.52807617 84.10644531 C-104.07450343 78.58286888 -101.11410189 75.17282501 -97.28198242 71.01269531 C-95.81484536 69.41812318 -94.43996035 67.73932544 -93.09057617 66.04394531 C-90.44710909 63.01362938 -87.63219436 60.50581425 -84.58276367 57.89941406 C-79.74337052 53.67644551 -75.50513013 49.14404699 -71.52807617 44.10644531 C-67.02258167 39.27128048 -67.02258167 39.27128048 -63.52807617 38.10644531 C-63.52807617 37.44644531 -63.52807617 36.78644531 -63.52807617 36.10644531 C-59.22575059 31.33900345 -59.22575059 31.33900345 -55.52807617 30.10644531 C-55.25737305 29.5534375 -54.98666992 29.00042969 -54.70776367 28.43066406 C-52.98059306 25.02779482 -50.33733054 22.57599965 -47.65307617 19.91894531 C-47.07589844 19.34740723 -46.4987207 18.77586914 -45.90405273 18.18701172 C-31.53159891 4.21052567 -19.77680916 -0.07265118 0 0 Z " fill="#000000" transform="translate(347.528076171875,258.8935546875)"/>
<path d="M0 0 C0.33 0 0.66 0 1 0 C1 2.31 1 4.62 1 7 C0.67 7 0.34 7 0 7 C0 4.69 0 2.38 0 0 Z " fill="#151414" transform="translate(313,479)"/>
<path d="M0 0 C0.33 0 0.66 0 1 0 C1 1.98 1 3.96 1 6 C0.67 6 0.34 6 0 6 C0 4.02 0 2.04 0 0 Z " fill="#131314" transform="translate(313,456)"/>
<path d="M0 0 C0.33 0 0.66 0 1 0 C1 1.98 1 3.96 1 6 C0.67 6 0.34 6 0 6 C0 4.02 0 2.04 0 0 Z " fill="#131212" transform="translate(313,427)"/>
<path d="M0 0 C0.33 0 0.66 0 1 0 C1 1.65 1 3.3 1 5 C0.67 5 0.34 5 0 5 C0 3.35 0 1.7 0 0 Z " fill="#151616" transform="translate(313,593)"/>
<path d="M0 0 C1 4 1 4 1 4 Z " fill="#161615" transform="translate(313,498)"/>
<path d="M0 0 C1 4 1 4 1 4 Z " fill="#151414" transform="translate(313,474)"/>
<path d="M0 0 C0.99 0.495 0.99 0.495 2 1 C1.67 1.66 1.34 2.32 1 3 C0.67 2.01 0.34 1.02 0 0 Z " fill="#131413" transform="translate(312,465)"/>
<path d="M0 0 C1 4 1 4 1 4 Z " fill="#131213" transform="translate(313,420)"/>
<path d="M0 0 C1 4 1 4 1 4 Z " fill="#111211" transform="translate(313,402)"/>
<path d="M0 0 C1 4 1 4 1 4 Z " fill="#111110" transform="translate(313,385)"/>
<path d="M0 0 C1 4 1 4 1 4 Z " fill="#111110" transform="translate(313,378)"/>
<path d="M0 0 C0.99 0.495 0.99 0.495 2 1 C1.01 1.495 1.01 1.495 0 2 C0 1.34 0 0.68 0 0 Z " fill="#141313" transform="translate(537,617)"/>
<path d="" fill="#161615" transform="translate(0,0)"/>
<path d="" fill="#141312" transform="translate(0,0)"/>
<path d="" fill="#131414" transform="translate(0,0)"/>
<path d="" fill="#121213" transform="translate(0,0)"/>
<path d="" fill="#121312" transform="translate(0,0)"/>
<path d="" fill="#111111" transform="translate(0,0)"/>
<path d="" fill="#121010" transform="translate(0,0)"/>
<path d="M0 0 C0.33 0.66 0.66 1.32 1 2 C0.34 1.67 -0.32 1.34 -1 1 C-0.67 0.67 -0.34 0.34 0 0 Z " fill="#0F0F0F" transform="translate(313,368)"/>
<path d="M0 0 C3 1 3 1 3 1 Z " fill="#181A19" transform="translate(659,264)"/>
<path d="" fill="#181918" transform="translate(0,0)"/>
<path d="" fill="#171917" transform="translate(0,0)"/>
<path d="" fill="#131412" transform="translate(0,0)"/>
<path d="M0 0 C2 1 2 1 2 1 Z " fill="#141212" transform="translate(624,448)"/>
<path d="" fill="#121312" transform="translate(0,0)"/>
<path d="M0 0 C2 1 2 1 2 1 Z " fill="#111010" transform="translate(637,364)"/>
<path d="" fill="#1C1C1C" transform="translate(0,0)"/>
<path d="" fill="#898988" transform="translate(0,0)"/>
<path d="" fill="#222322" transform="translate(0,0)"/>
<path d="" fill="#282728" transform="translate(0,0)"/>
<path d="" fill="#232322" transform="translate(0,0)"/>
<path d="" fill="#252324" transform="translate(0,0)"/>
<path d="" fill="#222320" transform="translate(0,0)"/>
<path d="" fill="#232525" transform="translate(0,0)"/>
<path d="" fill="#252523" transform="translate(0,0)"/>
<path d="" fill="#232421" transform="translate(0,0)"/>
<path d="" fill="#202221" transform="translate(0,0)"/>
<path d="" fill="#1C1A1A" transform="translate(0,0)"/>
<path d="" fill="#222221" transform="translate(0,0)"/>
<path d="" fill="#1D1C1A" transform="translate(0,0)"/>
<path d="" fill="#201F20" transform="translate(0,0)"/>
<path d="" fill="#1B1A19" transform="translate(0,0)"/>
<path d="" fill="#201F1E" transform="translate(0,0)"/>
<path d="" fill="#181818" transform="translate(0,0)"/>
<path d="" fill="#1F1E1E" transform="translate(0,0)"/>
<path d="" fill="#1F1F1E" transform="translate(0,0)"/>
<path d="" fill="#1B1B1C" transform="translate(0,0)"/>
<path d="" fill="#1A1A18" transform="translate(0,0)"/>
<path d="" fill="#171917" transform="translate(0,0)"/>
<path d="" fill="#161517" transform="translate(0,0)"/>
<path d="" fill="#171615" transform="translate(0,0)"/>
<path d="" fill="#191B1B" transform="translate(0,0)"/>
<path d="" fill="#161616" transform="translate(0,0)"/>
<path d="" fill="#161714" transform="translate(0,0)"/>
<path d="" fill="#1B191B" transform="translate(0,0)"/>
<path d="" fill="#151615" transform="translate(0,0)"/>
<path d="" fill="#161513" transform="translate(0,0)"/>
<path d="" fill="#191B1A" transform="translate(0,0)"/>
<path d="" fill="#151414" transform="translate(0,0)"/>
<path d="" fill="#1A1A19" transform="translate(0,0)"/>
<path d="" fill="#161715" transform="translate(0,0)"/>
<path d="" fill="#161515" transform="translate(0,0)"/>
<path d="" fill="#141412" transform="translate(0,0)"/>
<path d="" fill="#161813" transform="translate(0,0)"/>
<path d="" fill="#141414" transform="translate(0,0)"/>
<path d="" fill="#181616" transform="translate(0,0)"/>
<path d="" fill="#141512" transform="translate(0,0)"/>
<path d="" fill="#161414" transform="translate(0,0)"/>
<path d="" fill="#171918" transform="translate(0,0)"/>
<path d="" fill="#161616" transform="translate(0,0)"/>
<path d="" fill="#171715" transform="translate(0,0)"/>
<path d="" fill="#151512" transform="translate(0,0)"/>
<path d="" fill="#141611" transform="translate(0,0)"/>
<path d="" fill="#141311" transform="translate(0,0)"/>
<path d="" fill="#151212" transform="translate(0,0)"/>
<path d="" fill="#171717" transform="translate(0,0)"/>
<path d="" fill="#141315" transform="translate(0,0)"/>
<path d="" fill="#121213" transform="translate(0,0)"/>
<path d="" fill="#131413" transform="translate(0,0)"/>
<path d="" fill="#141312" transform="translate(0,0)"/>
<path d="" fill="#161616" transform="translate(0,0)"/>
<path d="" fill="#13120F" transform="translate(0,0)"/>
<path d="" fill="#161A16" transform="translate(0,0)"/>
<path d="" fill="#0F100F" transform="translate(0,0)"/>
<path d="" fill="#121210" transform="translate(0,0)"/>
<path d="" fill="#151615" transform="translate(0,0)"/>
<path d="" fill="#0F0F0E" transform="translate(0,0)"/>
<path d="" fill="#171415" transform="translate(0,0)"/>
<path d="" fill="#151516" transform="translate(0,0)"/>
<path d="" fill="#141312" transform="translate(0,0)"/>
<path d="" fill="#121110" transform="translate(0,0)"/>
<path d="" fill="#141312" transform="translate(0,0)"/>
<path d="" fill="#161414" transform="translate(0,0)"/>
<path d="" fill="#141511" transform="translate(0,0)"/>
<path d="" fill="#141111" transform="translate(0,0)"/>
<path d="" fill="#141415" transform="translate(0,0)"/>
<path d="" fill="#151716" transform="translate(0,0)"/>
<path d="" fill="#171818" transform="translate(0,0)"/>
<path d="" fill="#161616" transform="translate(0,0)"/>
<path d="" fill="#151513" transform="translate(0,0)"/>
<path d="" fill="#1A1919" transform="translate(0,0)"/>
<path d="" fill="#161517" transform="translate(0,0)"/>
<path d="" fill="#161515" transform="translate(0,0)"/>
<path d="" fill="#121212" transform="translate(0,0)"/>
<path d="" fill="#141212" transform="translate(0,0)"/>
<path d="" fill="#141715" transform="translate(0,0)"/>
<path d="" fill="#141614" transform="translate(0,0)"/>
<path d="" fill="#1A1918" transform="translate(0,0)"/>
<path d="" fill="#12130F" transform="translate(0,0)"/>
<path d="" fill="#161915" transform="translate(0,0)"/>
<path d="" fill="#141416" transform="translate(0,0)"/>
<path d="" fill="#1A1817" transform="translate(0,0)"/>
<path d="" fill="#151614" transform="translate(0,0)"/>
<path d="" fill="#141213" transform="translate(0,0)"/>
<path d="" fill="#151413" transform="translate(0,0)"/>
<path d="" fill="#131315" transform="translate(0,0)"/>
<path d="" fill="#141515" transform="translate(0,0)"/>
<path d="" fill="#131314" transform="translate(0,0)"/>
<path d="" fill="#1A1C1E" transform="translate(0,0)"/>
<path d="" fill="#1D1E1E" transform="translate(0,0)"/>
<path d="" fill="#171817" transform="translate(0,0)"/>
<path d="" fill="#191B19" transform="translate(0,0)"/>
<path d="" fill="#1B1D1C" transform="translate(0,0)"/>
<path d="" fill="#1A1C1A" transform="translate(0,0)"/>
<path d="" fill="#151415" transform="translate(0,0)"/>
<path d="" fill="#121311" transform="translate(0,0)"/>
<path d="" fill="#141413" transform="translate(0,0)"/>
<path d="" fill="#191B1A" transform="translate(0,0)"/>
<path d="" fill="#1F2120" transform="translate(0,0)"/>
<path d="" fill="#141213" transform="translate(0,0)"/>
<path d="" fill="#131013" transform="translate(0,0)"/>
<path d="" fill="#111312" transform="translate(0,0)"/>
<path d="" fill="#111312" transform="translate(0,0)"/>
<path d="" fill="#101012" transform="translate(0,0)"/>
<path d="" fill="#111112" transform="translate(0,0)"/>
<path d="" fill="#111211" transform="translate(0,0)"/>
<path d="" fill="#101010" transform="translate(0,0)"/>
<path d="" fill="#121313" transform="translate(0,0)"/>
<path d="" fill="#13120F" transform="translate(0,0)"/>
<path d="" fill="#111111" transform="translate(0,0)"/>
<path d="" fill="#120F10" transform="translate(0,0)"/>
<path d="" fill="#0F0E0E" transform="translate(0,0)"/>
<path d="" fill="#111111" transform="translate(0,0)"/>
<path d="" fill="#121211" transform="translate(0,0)"/>
<path d="" fill="#111311" transform="translate(0,0)"/>
<path d="" fill="#141312" transform="translate(0,0)"/>
<path d="" fill="#11110F" transform="translate(0,0)"/>
<path d="" fill="#141412" transform="translate(0,0)"/>
<path d="" fill="#262627" transform="translate(0,0)"/>
<path d="" fill="#282728" transform="translate(0,0)"/>
<path d="" fill="#1E1E1D" transform="translate(0,0)"/>
<path d="" fill="#1E1C1D" transform="translate(0,0)"/>
<path d="" fill="#1E1D1C" transform="translate(0,0)"/>
<path d="" fill="#1C1C1B" transform="translate(0,0)"/>
<path d="" fill="#1A1B19" transform="translate(0,0)"/>
<path d="" fill="#181717" transform="translate(0,0)"/>
<path d="" fill="#1D1E1C" transform="translate(0,0)"/>
<path d="" fill="#1B1C1C" transform="translate(0,0)"/>
<path d="" fill="#1D1E1E" transform="translate(0,0)"/>
<path d="" fill="#1C1D1C" transform="translate(0,0)"/>
<path d="" fill="#1B1B19" transform="translate(0,0)"/>
<path d="" fill="#282726" transform="translate(0,0)"/>
<path d="" fill="#201F1F" transform="translate(0,0)"/>
<path d="" fill="#222220" transform="translate(0,0)"/>
<path d="" fill="#1F1E1D" transform="translate(0,0)"/>
</svg>
