<?xml version="1.0" encoding="UTF-8"?>
<svg version="1.1" xmlns="http://www.w3.org/2000/svg" width="1024" height="1024">
<path d="M0 0 C1.69401939 0.25290624 3.39156464 0.48544397 5.09375 0.67578125 C5.96499512 0.77858398 6.83624023 0.88138672 7.73388672 0.98730469 C8.6467041 1.09461914 9.55952148 1.20193359 10.5 1.3125 C44.01043073 5.52799284 77.1574264 13.93463152 108.13818359 27.51147461 C111.92513546 29.33426126 111.92513546 29.33426126 116 30 C116 30.66 116 31.32 116 32 C116.804375 32.2475 117.60875 32.495 118.4375 32.75 C130.8742073 37.11375695 141.67815169 44.15780765 152.82421875 51.0703125 C154.9807193 52.38065847 157.16477112 53.64649521 159.37109375 54.87109375 C163.58543477 57.26569798 167.46517133 60.08013591 171.375 62.9375 C172.54639526 63.79130249 172.54639526 63.79130249 173.74145508 64.66235352 C176.16540181 66.43562212 178.58326831 68.21691455 181 70 C181.7420166 70.54398437 182.4840332 71.08796875 183.24853516 71.6484375 C193.27421695 79.02323819 202.48110075 86.91967672 211.45361328 95.5390625 C213.41099938 97.38828865 215.44301073 99.13781137 217.5 100.875 C220.67617184 103.6149594 223.39300189 106.59026468 226.1015625 109.7890625 C228.25460518 112.29651549 230.49979652 114.70443411 232.75 117.125 C238.53037136 123.48079294 243.81387475 130.15452101 249 137 C249.75603516 137.98734131 249.75603516 137.98734131 250.52734375 138.99462891 C292.67274344 194.31703479 316.72907914 265.59603433 318 335 C318.02046387 335.85190918 318.04092773 336.70381836 318.06201172 337.58154297 C318.8878087 375.69787472 313.29832639 413.37897046 302.43774414 449.89282227 C301.76378543 452.04406172 301.76378543 452.04406172 303 454 C302.01 454 301.02 454 300 454 C299.90332031 454.63421875 299.80664062 455.2684375 299.70703125 455.921875 C293.6237956 482.40579594 278.25225342 509.7331489 263 532 C263.33 532.66 263.66 533.32 264 534 C263.41734375 534.2165625 262.8346875 534.433125 262.234375 534.65625 C259.25403204 536.44862409 258.08568894 538.5568293 256.25 541.5 C252.49757506 547.3232076 248.3926402 552.65318551 244 558 C242.68657348 559.66593662 241.37407805 561.33260771 240.0625 563 C236.57266347 567.36571707 232.89774116 571.52639419 229.12890625 575.65234375 C227.33317723 577.63258804 225.59932394 579.6456535 223.875 581.6875 C215.59435057 591.16210353 206.53425574 600.12616154 196.6484375 607.91015625 C193.84704795 610.12069225 191.14810268 612.42927853 188.4375 614.75 C133.95277284 660.1539393 67.14111374 684.46495191 -3 691 C-4.28390625 691.13148438 -5.5678125 691.26296875 -6.890625 691.3984375 C-78.69276236 697.57676095 -154.99300763 679.24104621 -216 641 C-216.91265625 640.43418213 -216.91265625 640.43418213 -217.84375 639.85693359 C-230.45267142 632.02051611 -242.57310335 623.48449921 -254 614 C-254.49322754 613.59168945 -254.98645508 613.18337891 -255.49462891 612.76269531 C-286.85080312 586.7402536 -314.05609027 556.61525345 -334.5859375 521.26953125 C-335.93415111 518.91503741 -335.93415111 518.91503741 -338 517 C-339.17813986 514.84913954 -340.29206871 512.69846283 -341.375 510.5 C-341.71732666 509.80640381 -342.05965332 509.11280762 -342.41235352 508.39819336 C-343.61767837 505.936607 -344.81010784 503.46908289 -346 501 C-346.46293457 500.04367676 -346.92586914 499.08735352 -347.40283203 498.10205078 C-361.23367627 469.36518917 -370.87135582 440.059459 -377.52270508 408.91333008 C-377.94322159 406.9323662 -377.94322159 406.9323662 -379 405 C-379.18919002 403.56756126 -379.32492611 402.12798628 -379.4375 400.6875 C-379.75260834 396.86618615 -380.0892062 393.04936532 -380.47265625 389.234375 C-381.61489866 377.83336127 -382.60961525 366.45369586 -383 355 C-383.02868164 354.21737793 -383.05736328 353.43475586 -383.08691406 352.62841797 C-384.78734233 298.74206129 -372.20245862 245.41533283 -349 197 C-348.44844238 195.83911865 -348.44844238 195.83911865 -347.88574219 194.65478516 C-337.91390956 173.75026738 -325.53210544 153.97902924 -311.1953125 135.79296875 C-308.75620264 132.68983076 -306.43940106 129.51194626 -304.15625 126.29296875 C-303.58390625 125.65294922 -303.58390625 125.65294922 -303 125 C-302.34 125 -301.68 125 -301 125 C-300.78859375 124.47019531 -300.5771875 123.94039063 -300.359375 123.39453125 C-298.464948 120.05750898 -295.87850516 117.44894288 -293.25 114.6875 C-292.1552101 113.52311228 -291.06144752 112.35775774 -289.96875 111.19140625 C-289.44925781 110.63727051 -288.92976563 110.08313477 -288.39453125 109.51220703 C-286.78377221 107.7655261 -285.25648055 105.96206934 -283.75 104.125 C-281.07585674 100.93811541 -278.02621483 98.30174031 -274.86328125 95.609375 C-273.39585363 94.34191131 -271.99609591 92.99609591 -270.625 91.625 C-225.90050958 46.90050958 -165.0577385 16.85256792 -103.375 4.6875 C-102.21073486 4.45708008 -101.04646973 4.22666016 -99.84692383 3.98925781 C-79.67756446 0.23566521 -59.51964024 -1.48487844 -39.01928711 -1.76342773 C-35.51164419 -1.81322194 -32.00516676 -1.88887167 -28.49804688 -1.96679688 C-26.22919275 -2.0067195 -23.96031244 -2.04518622 -21.69140625 -2.08203125 C-20.66213516 -2.10481644 -19.63286407 -2.12760162 -18.57240295 -2.15107727 C-12.10802183 -2.22028878 -6.29004622 -1.42990576 0 0 Z M-137 46 C-137.90427734 46.31163086 -138.80855469 46.62326172 -139.74023438 46.94433594 C-159.6293322 53.86961134 -179.05495243 62.96560837 -197 74 C-198.0828125 74.65871094 -199.165625 75.31742188 -200.28125 75.99609375 C-214.77933096 84.9775764 -228.43706256 95.29284542 -241.21484375 106.57421875 C-244 109 -244 109 -246.37890625 110.70703125 C-247.18134766 111.34705078 -247.18134766 111.34705078 -248 112 C-248 112.66 -248 113.32 -248 114 C-248.57274658 114.2482251 -249.14549316 114.4964502 -249.7355957 114.75219727 C-252.34704822 116.19124135 -254.11907661 117.86008748 -256.23046875 119.96484375 C-257.02904297 120.75930908 -257.82761719 121.55377441 -258.65039062 122.37231445 C-259.48763672 123.21882568 -260.32488281 124.06533691 -261.1875 124.9375 C-262.47624023 126.23530396 -262.47624023 126.23530396 -263.79101562 127.55932617 C-269.59722927 133.45674557 -274.97240976 139.42321044 -280 146 C-280.83015625 147.02480469 -281.6603125 148.04960937 -282.515625 149.10546875 C-325.20918748 201.85457001 -350.23922776 268.04886477 -352 336 C-352.03287109 337.26432861 -352.03287109 337.26432861 -352.06640625 338.55419922 C-353.42858967 401.86167356 -336.74794958 466.86762546 -300 519 C-299.10968822 520.30140739 -298.22044001 521.60354277 -297.33203125 522.90625 C-292.07306992 530.55605006 -286.57939589 537.94933758 -280.6875 545.125 C-280.12530762 545.81102295 -279.56311523 546.4970459 -278.98388672 547.20385742 C-275.68572452 551.16136095 -272.22310566 554.85192219 -268.54663086 558.45947266 C-266.73523888 560.26371629 -265.07540651 562.16279621 -263.4375 564.125 C-260.52369062 567.50814781 -257.47507499 570.20483099 -254 573 C-252.31183067 574.64488294 -250.64646685 576.31337542 -249 578 C-243.32085393 583.85983241 -243.32085393 583.85983241 -237 589 C-236.34 589 -235.68 589 -235 589 C-235 589.66 -235 590.32 -235 591 C-233.66773174 592.29963495 -233.66773174 592.29963495 -231.88671875 593.57421875 C-231.2213208 594.0734082 -230.55592285 594.57259766 -229.87036133 595.08691406 C-229.15001709 595.61510742 -228.42967285 596.14330078 -227.6875 596.6875 C-226.5886145 597.50105957 -226.5886145 597.50105957 -225.4675293 598.33105469 C-219.8008005 602.49142211 -214.00321781 606.34165141 -208 610 C-207.09121094 610.58652344 -206.18242187 611.17304687 -205.24609375 611.77734375 C-132.55153018 658.12368219 -42.23797889 671.4932843 41.45800781 653.24609375 C91.19996434 641.851965 136.4036485 618.95200077 175.46044922 586.22998047 C176.91138488 585.07079654 178.45477671 584.03014886 180 583 C180 582.34 180 581.68 180 581 C180.58910156 580.73832031 181.17820312 580.47664062 181.78515625 580.20703125 C184.11785434 578.9357725 185.60354368 577.59769469 187.4375 575.6875 C187.99308594 575.11386719 188.54867187 574.54023437 189.12109375 573.94921875 C190.05115234 572.98435547 190.05115234 572.98435547 191 572 C193.65174263 569.33049025 196.32244417 566.68225374 199.015625 564.0546875 C205.83967736 557.36688561 212.15388355 550.57474226 218 543 C218.49371094 542.36191406 218.98742187 541.72382812 219.49609375 541.06640625 C221.01937156 539.05982216 222.50959193 537.0311457 224 535 C224.85511875 533.85260366 225.71062441 532.70549561 226.56640625 531.55859375 C238.19904331 515.91200485 247.44021179 499.48030126 256 482 C256.3005127 481.39172363 256.60102539 480.78344727 256.91064453 480.15673828 C267.58986675 458.44649366 275.07409476 435.44199943 280.4375 411.875 C280.6835498 410.80149292 280.6835498 410.80149292 280.93457031 409.70629883 C281.57529033 406.73168088 281.9999414 403.99345387 281.97265625 400.9453125 C282.00600052 397.35365838 282.97852151 394.43723782 284 391 C285.49481116 382.19722319 286.23333575 373.60298148 285.97265625 364.671875 C286 362 286 362 286.49121094 360.12402344 C297.51211537 314.11544926 277.00864476 247.62905308 256 207 C255.48421387 205.99501465 255.48421387 205.99501465 254.95800781 204.96972656 C245.39362854 186.34459866 245.39362854 186.34459866 234.0234375 168.8046875 C232.43234877 166.5992788 230.88380651 164.37873403 229.3515625 162.1328125 C222.91641537 152.75831317 216.02083773 144.0716661 208.42358398 135.61474609 C207.02737318 134.03104892 205.68599045 132.41322455 204.3515625 130.77734375 C202.42408212 128.50086775 200.60069285 126.63614595 198.3125 124.75 C193.97096959 121.07003613 190.04666867 117.0391868 186.1015625 112.94140625 C184.23199491 110.77381214 184.23199491 110.77381214 182 111 C182 110.34 182 109.68 182 109 C180.42633741 107.52426029 180.42633741 107.52426029 178.3125 106 C177.08273437 105.071875 177.08273437 105.071875 175.828125 104.125 C174.89484375 103.42375 173.9615625 102.7225 173 102 C171.40830113 100.76465162 169.81665089 99.52923819 168.22680664 98.29150391 C162.27570402 93.67344129 156.2717876 89.17562423 150 85 C149.38012207 84.58556641 148.76024414 84.17113281 148.12158203 83.74414062 C133.32782311 73.92548855 117.59245599 64.43941491 101 58 C99.11963588 57.24127139 97.23943823 56.48213014 95.359375 55.72265625 C93.15628419 54.83585255 90.953158 53.94913676 88.75 53.0625 C87.10837891 52.39831055 87.10837891 52.39831055 85.43359375 51.72070312 C56.70624652 40.17815822 25.8442937 33.45988398 -5 31 C-5.67482422 30.94360352 -6.34964844 30.88720703 -7.04492188 30.82910156 C-50.93055397 27.32074214 -95.37653571 31.37972299 -137 46 Z " fill="#00C4FE" transform="translate(543,162)"/>
<path d="M0 0 C0.84175781 0.61359375 1.68351562 1.2271875 2.55078125 1.859375 C5.19131937 4.16721374 6.83624753 6.40467581 8.6875 9.375 C9.26886719 10.29023438 9.85023438 11.20546875 10.44921875 12.1484375 C15.39914132 21.25031024 15.29746599 32.20062127 13.3828125 42.234375 C9.88653063 52.93980445 1.88767495 61.25492709 -5.36743164 69.60131836 C-8.84184907 73.60675317 -12.18298288 77.68926339 -15.4375 81.875 C-23.84281728 92.68183651 -32.54571443 103.24595141 -41.25 113.8125 C-41.83386475 114.52196777 -42.41772949 115.23143555 -43.01928711 115.96240234 C-45.62972853 119.13251471 -48.24530151 122.29767324 -50.8828125 125.4453125 C-51.70523437 126.43273437 -52.52765625 127.42015625 -53.375 128.4375 C-54.08398438 129.28183594 -54.79296875 130.12617188 -55.5234375 130.99609375 C-57.19773301 132.8534933 -57.19773301 132.8534933 -57 135 C-57.680625 135.515625 -58.36125 136.03125 -59.0625 136.5625 C-62.2963045 139.24586969 -64.52876127 142.1081494 -67.05078125 145.4453125 C-69.1222629 148.16024036 -71.26755753 150.80070244 -73.4375 153.4375 C-76.31610783 156.93956265 -79.17423812 160.45515756 -82 164 C-85.45109387 168.32573259 -88.94665366 172.61291875 -92.45703125 176.890625 C-94.33792053 179.18589653 -96.20805404 181.48961681 -98.07421875 183.796875 C-103.19650353 190.12715187 -108.33470157 196.43406284 -113.625 202.625 C-120.58879251 210.7864278 -127.25556523 219.19531065 -133.5625 227.875 C-134.366875 228.90625 -135.17125 229.9375 -136 231 C-136.66 231 -137.32 231 -138 231 C-138.22945312 231.52851562 -138.45890625 232.05703125 -138.6953125 232.6015625 C-140.4286191 235.7879405 -142.62430644 238.54591591 -144.875 241.375 C-145.60203125 242.29539062 -145.60203125 242.29539062 -146.34375 243.234375 C-150.27756534 248.17686094 -154.36836641 252.97066519 -158.51049805 257.73876953 C-162.03327723 261.81381745 -165.39095779 265.99049455 -168.6875 270.25 C-172.55339278 275.24312962 -176.59810114 279.97777874 -180.875 284.62890625 C-183.07383034 287.08238055 -185.13903125 289.60751569 -187.1875 292.1875 C-188.17169922 293.425 -188.17169922 293.425 -189.17578125 294.6875 C-190.2872193 296.09643217 -191.39090706 297.51158285 -192.48046875 298.9375 C-199.75932842 308.07175527 -209.35987515 313.50529833 -220.875 314.8125 C-233.90077009 315.58257697 -242.94475031 311.00958598 -252.56640625 302.55078125 C-254 301 -254 301 -254 299 C-254.66 299 -255.32 299 -256 299 C-257.3046875 297.70703125 -257.3046875 297.70703125 -258.875 295.8125 C-262.15634022 291.94765786 -265.54806986 288.21145364 -269 284.5 C-272.83111205 280.36920515 -276.61265109 276.20887513 -280.30078125 271.94921875 C-283.0594437 268.78468412 -285.87860078 265.67497351 -288.69140625 262.55859375 C-290.1811928 260.90747667 -291.66836877 259.25399856 -293.15234375 257.59765625 C-296.48079862 253.88399141 -299.8180244 250.1839003 -303.234375 246.55078125 C-303.78569092 245.96208252 -304.33700684 245.37338379 -304.9050293 244.7668457 C-305.9960249 243.60385628 -307.09114526 242.44472034 -308.19067383 241.28979492 C-312 237.2226715 -312 237.2226715 -312 235 C-312.66 235 -313.32 235 -314 235 C-315.5078125 233.5390625 -315.5078125 233.5390625 -317.125 231.625 C-317.66382813 230.99851562 -318.20265625 230.37203125 -318.7578125 229.7265625 C-320 228 -320 228 -320 226 C-320.66 226 -321.32 226 -322 226 C-323.45402342 224.3623728 -324.83848678 222.66265804 -326.1875 220.9375 C-329.38168692 216.94093332 -332.63272871 213.24439944 -336.30078125 209.6875 C-340.47360859 205.54345078 -344.54787318 201.394679 -347 196 C-347.66 196 -348.32 196 -349 196 C-361.21427519 182.93072555 -368.70240381 170.5061675 -368.53857422 152.42138672 C-368.13584178 141.67308535 -364.59497962 133.66274156 -357.10546875 125.90625 C-349.48182185 119.00395002 -341.79567104 116.60706824 -331.609375 116.796875 C-327.32218815 117.13060811 -323.17732039 118.00455344 -319 119 C-319 119.66 -319 120.32 -319 121 C-318.26910156 121.25007812 -317.53820312 121.50015625 -316.78515625 121.7578125 C-305.49411047 126.79365059 -294.5256487 140.86939559 -286.57421875 150.20703125 C-284.9523281 152.05429629 -283.25339795 153.77756714 -281.5 155.5 C-278.52633728 158.42771208 -275.78821273 161.49465423 -273.0625 164.65234375 C-270.52525001 167.54038777 -267.92325911 170.36614189 -265.3125 173.1875 C-264.80654297 173.73535156 -264.30058594 174.28320312 -263.77929688 174.84765625 C-261.06355234 177.7843312 -258.33574009 180.70890577 -255.59375 183.62109375 C-255.04420654 184.20802002 -254.49466309 184.79494629 -253.9284668 185.3996582 C-252.87142291 186.52824699 -251.81052964 187.6532458 -250.74536133 188.77416992 C-248.49782628 191.17971994 -247.05474729 192.83575814 -246 196 C-245.01 196.33 -244.02 196.66 -243 197 C-241.59765625 198.390625 -241.59765625 198.390625 -240.0625 200.25 C-236.68018796 204.21896574 -233.24765066 208.13259317 -229.75 212 C-229.23058838 212.58813477 -228.71117676 213.17626953 -228.17602539 213.78222656 C-226.8454797 215.24645311 -225.42790458 216.63054766 -224 218 C-223.01 218 -222.02 218 -221 218 C-218.91575638 215.71523148 -217.01736154 213.4367165 -215.125 211 C-213.95341131 209.52321031 -212.7815281 208.04665425 -211.609375 206.5703125 C-211.01060547 205.81008789 -210.41183594 205.04986328 -209.79492188 204.26660156 C-207.02686853 200.77114356 -204.19816357 197.32595715 -201.375 193.875 C-197.31872373 188.89678766 -193.32139205 183.87815525 -189.375 178.8125 C-185.39385709 173.70232253 -181.26931786 168.74162069 -177.05419922 163.82348633 C-173.47373958 159.62119766 -170.10809893 155.2837501 -166.77587891 150.88354492 C-163.2974252 146.31884934 -159.61982543 141.94742422 -155.89013672 137.5871582 C-152.81472009 133.98500975 -149.87059359 130.31451938 -146.9921875 126.5546875 C-144.29662006 123.09801867 -141.52177196 119.70818078 -138.75 116.3125 C-134.16469339 110.6911471 -129.64136291 105.02826759 -125.18041992 99.30786133 C-121.00762529 93.9723685 -116.72708223 88.72654389 -112.4140625 83.50390625 C-109.37238804 79.79473216 -106.64034785 76.01151561 -104 72 C-102.96365454 70.7282318 -101.90468613 69.47414693 -100.8125 68.25 C-99.24965131 66.49327894 -98.05352061 65.10704123 -97 63 C-96.34 63 -95.68 63 -95 63 C-94.731875 62.443125 -94.46375 61.88625 -94.1875 61.3125 C-91.65374244 56.37834054 -88.92894505 52.92330001 -85 49 C-83.24516067 47.01603418 -81.51690019 45.0259268 -79.8125 43 C-79.33546631 42.43531006 -78.85843262 41.87062012 -78.36694336 41.28881836 C-75.15674309 37.45855625 -72.07853909 33.546673 -69.0625 29.5625 C-64.07738137 22.97945849 -58.73808791 16.73562635 -53.30859375 10.51708984 C-52.18405121 9.21337579 -51.0889738 7.88434877 -50 6.55078125 C-36.90453692 -9.36384402 -16.77342961 -12.34382672 0 0 Z " fill="#00C7FE" transform="translate(690,345)"/>
<path d="M0 0 C1.20677693 3.49047165 0.77611492 5.62551506 -0.29296875 9.12109375 C-0.59170898 10.12809326 -0.89044922 11.13509277 -1.19824219 12.17260742 C-1.52469727 13.25002197 -1.85115234 14.32743652 -2.1875 15.4375 C-7.58750542 34.00436699 -10.8189323 52.79696612 -13 72 C-13.14574463 73.2528479 -13.14574463 73.2528479 -13.29443359 74.53100586 C-14.35473785 85.13119307 -14.24287957 95.79549685 -14.25 106.4375 C-14.25100708 107.48090546 -14.25201416 108.52431091 -14.25305176 109.59933472 C-14.23798581 132.72667704 -12.32127916 155.00659265 -7.76953125 177.71875 C-7.15712336 180.86248887 -6.80881791 183.78286683 -7 187 C-9.29592735 183.55610898 -9.84976657 180.42352769 -10.5625 176.4375 C-11.33552171 171.58237672 -11.33552171 171.58237672 -13 167 C-13.18919002 165.56756126 -13.32492611 164.12798628 -13.4375 162.6875 C-13.75260834 158.86618615 -14.0892062 155.04936532 -14.47265625 151.234375 C-15.61489866 139.83336127 -16.60961525 128.45369586 -17 117 C-17.02868164 116.21737793 -17.05736328 115.43475586 -17.08691406 114.62841797 C-18.30472947 76.03600185 -12.19473563 36.58420688 0 0 Z " fill="#058AEF" transform="translate(177,400)"/>
<path d="M0 0 C1.47786304 0.00503337 2.95572777 0.00959298 4.43359375 0.01367188 C7.99743195 0.02451282 11.56120447 0.04167221 15.125 0.0625 C15.125 0.7225 15.125 1.3825 15.125 2.0625 C14.52550537 2.05726318 13.92601074 2.05202637 13.30834961 2.04663086 C10.55974398 2.02568557 7.81115522 2.01278444 5.0625 2 C3.64807617 1.98743164 3.64807617 1.98743164 2.20507812 1.97460938 C-1.7284729 1.96090362 -5.47176094 2.00437951 -9.37109375 2.56640625 C-13.27478977 3.11910346 -17.00070961 3.10410997 -20.93603516 3.06640625 C-25.81875378 3.05991651 -30.68687835 3.31953973 -35.5625 3.5625 C-36.56216797 3.61019531 -37.56183594 3.65789062 -38.59179688 3.70703125 C-41.01965354 3.82319664 -43.44736966 3.94171278 -45.875 4.0625 C-45.875 3.7325 -45.875 3.4025 -45.875 3.0625 C-43.66751633 2.74405348 -41.45894145 2.43317208 -39.25 2.125 C-37.40535156 1.86396484 -37.40535156 1.86396484 -35.5234375 1.59765625 C-23.68806579 0.13870308 -11.90166947 -0.07172942 0 0 Z " fill="#00DEFE" transform="translate(504.875,161.9375)"/>
<path d="M0 0 C0.33 0.66 0.66 1.32 1 2 C0.0390625 4.171875 0.0390625 4.171875 -1.375 6.75 C-2.90780528 9.6774068 -3.96521699 11.78695403 -4.5 15.0625 C-5.25882989 19.52062559 -7.48001446 23.27104944 -10 27 C-10.66 27.33 -11.32 27.66 -12 28 C-13.12706706 30.11015954 -13.12706706 30.11015954 -14.125 32.5625 C-14.47820312 33.38878906 -14.83140625 34.21507812 -15.1953125 35.06640625 C-15.46085938 35.70449219 -15.72640625 36.34257812 -16 37 C-17.26155382 33.21533854 -16.54387941 32.36149384 -14.90234375 28.80859375 C-14.19368164 27.26655273 -14.19368164 27.26655273 -13.47070312 25.69335938 C-12.96474609 24.61892578 -12.45878906 23.54449219 -11.9375 22.4375 C-11.21916992 20.86645508 -11.21916992 20.86645508 -10.48632812 19.26367188 C-7.38168308 12.57642439 -3.93251 6.23582486 0 0 Z " fill="#029AF3" transform="translate(203,342)"/>
<path d="M0 0 C0.66 0.33 1.32 0.66 2 1 C0.83087014 2.40983306 -0.33953889 3.81862087 -1.515625 5.22265625 C-2.49154124 6.39118754 -3.46053233 7.56554382 -4.421875 8.74609375 C-7.8784314 12.91812016 -11.5480376 16.86756254 -16 20 C-16.66 20 -17.32 20 -18 20 C-18.99 20.66 -19.98 21.32 -21 22 C-19.49055027 18.15776433 -17.23156958 16.48004177 -14 14 C-12.31237149 12.3545622 -10.6459651 10.68711423 -9 9 C-6 6 -3 3 0 0 Z " fill="#01AAF7" transform="translate(278,248)"/>
<path d="M0 0 C0.33 0 0.66 0 1 0 C0.47949299 6.40477529 -0.71569279 11.90190917 -2.875 17.9375 C-3.42056206 19.50866682 -3.96484259 21.08027924 -4.5078125 22.65234375 C-4.76723633 23.3985498 -5.02666016 24.14475586 -5.29394531 24.91357422 C-6.44731556 28.32183914 -7.41901774 31.77791167 -8.359375 35.25 C-9 37 -9 37 -11 39 C-10.152874 33.63486869 -9.08318169 28.3212615 -8 23 C-7.34 23 -6.68 23 -6 23 C-5.7525 21.80375 -5.505 20.6075 -5.25 19.375 C-3.80571838 12.83386947 -1.88283085 6.42538877 0 0 Z " fill="#00D4FC" transform="translate(823,579)"/>
<path d="M0 0 C2 2 2 2 3 5 C3.66 5.33 4.32 5.66 5 6 C7.10789475 10.91842109 8.40204784 15.66079269 9.45703125 20.890625 C9.99442287 23.28434323 9.99442287 23.28434323 11.6875 26.375 C12.120625 27.24125 12.55375 28.1075 13 29 C12.67 29.99 12.34 30.98 12 32 C0 5.52427184 0 5.52427184 0 0 Z " fill="#0292F3" transform="translate(179,618)"/>
<path d="M0 0 C0 3.67819168 -0.76843318 4.22382655 -3.1875 6.875 C-3.83332031 7.58398438 -4.47914063 8.29296875 -5.14453125 9.0234375 C-10.14679338 14.35216306 -15.51131553 19.18095895 -21 24 C-21.66 23.67 -22.32 23.34 -23 23 C-15.41 15.41 -7.82 7.82 0 0 Z " fill="#00E3FE" transform="translate(750,719)"/>
<path d="M0 0 C2.88774065 4.33161098 4.60347365 9.06563674 6.5625 13.875 C6.97435547 14.86886719 7.38621094 15.86273437 7.81054688 16.88671875 C8.20435547 17.84964844 8.59816406 18.81257812 9.00390625 19.8046875 C9.36299072 20.68108887 9.7220752 21.55749023 10.09204102 22.46044922 C10.98762734 24.9653938 11.54837242 27.38191167 12 30 C7.43390684 26.08402061 5.85559285 22.74815342 4.3125 17 C2.79339489 11.55503903 2.79339489 11.55503903 0.85546875 6.25 C0 4 0 4 0 0 Z " fill="#0188F1" transform="translate(207,609)"/>
<path d="M0 0 C2.20330318 3.30495477 3.04438371 6.12332472 4.125 9.9375 C4.47820312 11.16339844 4.83140625 12.38929688 5.1953125 13.65234375 C6 17 6 17 6 21 C6.66 21 7.32 21 8 21 C9.60725635 24.21451269 9.05748185 27.43612536 9 31 C6.43816091 27.15724136 5.31810155 23.25530273 3.9375 18.875 C3.5343457 17.64910156 3.5343457 17.64910156 3.12304688 16.3984375 C1.38077289 10.90658134 0.46805451 5.74377998 0 0 Z " fill="#028CEF" transform="translate(170,587)"/>
<path d="M0 0 C0 5.63483242 -3.2916948 8.94673617 -7 13 C-9.8125 14.875 -9.8125 14.875 -12 16 C-10.37921571 12.27131047 -8.02767716 9.42653322 -5.4375 6.3125 C-4.63183594 5.33925781 -3.82617188 4.36601562 -2.99609375 3.36328125 C-1 1 -1 1 0 0 Z " fill="#00AFF7" transform="translate(616,381)"/>
<path d="M0 0 C0.66 0.33 1.32 0.66 2 1 C-0.45023758 3.50804718 -2.91147598 6.0050076 -5.375 8.5 C-6.42300781 9.57314453 -6.42300781 9.57314453 -7.4921875 10.66796875 C-8.1625 11.34472656 -8.8328125 12.02148438 -9.5234375 12.71875 C-10.14138184 13.34716797 -10.75932617 13.97558594 -11.39599609 14.62304688 C-13 16 -13 16 -15 16 C-13.88066638 12.64199915 -12.97594556 11.8943549 -10.3125 9.6875 C-6.68248665 6.61343464 -3.32096428 3.40398838 0 0 Z " fill="#00E5FE" transform="translate(759,747)"/>
<path d="M0 0 C0 4.06892857 -1.64505053 5.33622345 -4.265625 8.28125 C-6.64672681 10.64090044 -9.12396741 12.28807584 -12 14 C-9.38243868 8.32861715 -5.24688193 3.43065357 0 0 Z " fill="#00BAFA" transform="translate(537,481)"/>
<path d="M0 0 C1.8125 0.5625 1.8125 0.5625 4 2 C4.75594232 3.64335287 5.50118848 5.29471734 6.13671875 6.98828125 C7.42828158 9.99803173 9.26562146 12.6040268 11.109375 15.30078125 C11.40328125 15.86152344 11.6971875 16.42226563 12 17 C11.67 17.66 11.34 18.32 11 19 C9.53623754 16.77423775 8.07892459 14.54467564 6.625 12.3125 C6.2125 11.68666016 5.8 11.06082031 5.375 10.41601562 C3.1805385 7.03583702 1.33369689 3.83254656 0 0 Z " fill="#028BF1" transform="translate(208,681)"/>
<path d="M0 0 C2.14909962 2.76854598 4.01778828 5.57834526 5.75 8.625 C6.19859375 9.40101563 6.6471875 10.17703125 7.109375 10.9765625 C7.40328125 11.64429688 7.6971875 12.31203125 8 13 C7.67 13.66 7.34 14.32 7 15 C6.731875 14.195625 6.46375 13.39125 6.1875 12.5625 C5.795625 11.716875 5.40375 10.87125 5 10 C4.01 9.67 3.02 9.34 2 9 C0.25 6.125 0.25 6.125 -1 3 C-0.67 2.01 -0.34 1.02 0 0 Z " fill="#0099F4" transform="translate(224,649)"/>
<path d="M0 0 C1.32 0 2.64 0 4 0 C5.4375 2.1875 5.4375 2.1875 7 5 C8.6459651 6.68711423 10.31237149 8.3545622 12 10 C13.02813611 11.31175986 14.04084432 12.6369893 15 14 C10.94772191 12.38873705 8.23778153 9.49978002 5.25 6.4375 C4.74339844 5.93025391 4.23679687 5.42300781 3.71484375 4.90039062 C0 1.14048812 0 1.14048812 0 0 Z " fill="#00DEFF" transform="translate(736,280)"/>
<path d="M0 0 C3.10742423 1.46818668 5.90471739 3.20025 8.75 5.125 C9.94882812 5.93324219 9.94882812 5.93324219 11.171875 6.7578125 C11.77515625 7.16773438 12.3784375 7.57765625 13 8 C9.01080638 8 6.53033392 6.82820864 3 5 C1.0625 2.3125 1.0625 2.3125 0 0 Z " fill="#009CF6" transform="translate(317,760)"/>
<path d="M0 0 C0.66 0 1.32 0 2 0 C1.62669176 2.72574271 1.20805399 3.80822085 -0.84765625 5.703125 C-1.94400391 6.46882812 -1.94400391 6.46882812 -3.0625 7.25 C-3.79597656 7.77078125 -4.52945312 8.2915625 -5.28515625 8.828125 C-5.85105469 9.21484375 -6.41695313 9.6015625 -7 10 C-5.15014033 6.06048404 -2.92434659 3.21678125 0 0 Z " fill="#00B8FA" transform="translate(491,536)"/>
<path d="M0 0 C0.33 0 0.66 0 1 0 C1.3125 2.25 1.3125 2.25 1 5 C-3.10810811 9 -3.10810811 9 -6 9 C-4.47300326 5.56425733 -2.44973747 2.84485642 0 0 Z " fill="#00BBFA" transform="translate(636,356)"/>
<path d="M0 0 C2.66666667 2.66666667 5.33333333 5.33333333 8 8 C7.67 8.66 7.34 9.32 7 10 C4.0625 8.375 4.0625 8.375 1 6 C0.125 2.75 0.125 2.75 0 0 Z " fill="#0099F6" transform="translate(258,702)"/>
<path d="M0 0 C0.66 0.99 1.32 1.98 2 3 C-0.55991624 5.01136276 -3.04590299 6.62845496 -6 8 C-4.55746343 4.63408134 -2.66735273 2.48952921 0 0 Z " fill="#01A7F6" transform="translate(248,279)"/>
<path d="M0 0 C0 3.58912412 -0.66436554 4.10857029 -3 6.6875 C-3.556875 7.31011719 -4.11375 7.93273437 -4.6875 8.57421875 C-5.120625 9.04472656 -5.55375 9.51523437 -6 10 C-6.66 9.01 -7.32 8.02 -8 7 C-5.36 4.69 -2.72 2.38 0 0 Z " fill="#01ACF5" transform="translate(789,715)"/>
<path d="M0 0 C0.598125 0.20625 1.19625 0.4125 1.8125 0.625 C-1.1575 3.1 -1.1575 3.1 -4.1875 5.625 C-4.8475 5.295 -5.5075 4.965 -6.1875 4.625 C-5.03076352 1.15479057 -3.91311293 -0.67081936 0 0 Z " fill="#00B9F6" transform="translate(717.1875,785.375)"/>
<path d="M0 0 C1.32 0.33 2.64 0.66 4 1 C4 1.66 4 2.32 4 3 C4.66 3.33 5.32 3.66 6 4 C6.625 6.5625 6.625 6.5625 7 9 C4.03595495 6.19195732 1.55500981 3.81684226 0 0 Z " fill="#0193F4" transform="translate(235,720)"/>
<path d="M0 0 C2.63249349 2.45699392 4.78137264 4.56568654 6 8 C5.67 8.99 5.34 9.98 5 11 C1.7089159 7.39042389 0.45336079 4.87362847 0 0 Z " fill="#00A1F6" transform="translate(213,628)"/>
<path d="M0 0 C0 4.38968456 -2.12805101 5.76905739 -5 9 C-5 5.74188938 -4.4477922 3.89558441 -3 1 C-2.01 0.67 -1.02 0.34 0 0 Z " fill="#00AEF9" transform="translate(551,576)"/>
<path d="M0 0 C2 4 2 4 1.25 7.1875 C0 10 0 10 -2 11 C-1.34 7.37 -0.68 3.74 0 0 Z " fill="#00B5FE" transform="translate(171,425)"/>
<path d="M0 0 C0.33 0 0.66 0 1 0 C1.22245393 1.60226955 1.42746669 3.20696767 1.625 4.8125 C1.74101562 5.70582031 1.85703125 6.59914063 1.9765625 7.51953125 C2 10 2 10 0 13 C-0.96661363 9.87819599 -0.98988909 7.47916205 -0.5625 4.25 C-0.46066406 3.45078125 -0.35882813 2.6515625 -0.25390625 1.828125 C-0.17011719 1.22484375 -0.08632812 0.6215625 0 0 Z " fill="#00B1FD" transform="translate(164,463)"/>
<path d="M0 0 C1.98 0 3.96 0 6 0 C6 0.33 6 0.66 6 1 C4.02 1 2.04 1 0 1 C0 0.67 0 0.34 0 0 Z " fill="#01BAF8" transform="translate(508,855)"/>
<path d="M0 0 C3 1 3 1 3 1 Z " fill="#00C0FA" transform="translate(661,822)"/>
<path d="M0 0 C3 1 3 1 3 1 Z " fill="#01C7FF" transform="translate(568,816)"/>
<path d="" fill="#01C4FF" transform="translate(0,0)"/>
<path d="M0 0 C2 1 2 1 2 1 Z " fill="#00BAFA" transform="translate(520,855)"/>
<path d="M0 0 C2 1 2 1 2 1 Z " fill="#00BCF7" transform="translate(504,855)"/>
<path d="M0 0 C2 1 2 1 2 1 Z " fill="#05B8FA" transform="translate(500,855)"/>
<path d="M0 0 C2 1 2 1 2 1 Z " fill="#03B7F7" transform="translate(466,852)"/>
<path d="M0 0 C2 1 2 1 2 1 Z " fill="#00C0F9" transform="translate(584,847)"/>
<path d="" fill="#03B2F6" transform="translate(0,0)"/>
<path d="M0 0 C2 1 2 1 2 1 Z " fill="#00B7FC" transform="translate(454,816)"/>
<path d="M0 0 C2 1 2 1 2 1 Z " fill="#01C5FF" transform="translate(601,808)"/>
<path d="M0 0 C2 1 2 1 2 1 Z " fill="#00C9FF" transform="translate(626,800)"/>
<path d="" fill="#0A9FF2" transform="translate(0,0)"/>
<path d="M0 0 C2 1 2 1 2 1 Z " fill="#07C3FD" transform="translate(836,638)"/>
<path d="M0 0 C2 1 2 1 2 1 Z " fill="#05C2FE" transform="translate(838,635)"/>
<path d="" fill="#02C2FC" transform="translate(0,0)"/>
<path d="" fill="#01B3FB" transform="translate(0,0)"/>
<path d="" fill="#0FA1F3" transform="translate(0,0)"/>
<path d="" fill="#00C2FF" transform="translate(0,0)"/>
<path d="" fill="#08A7F5" transform="translate(0,0)"/>
<path d="" fill="#07C3FD" transform="translate(0,0)"/>
<path d="" fill="#0FA5F4" transform="translate(0,0)"/>
<path d="" fill="#00C6FF" transform="translate(0,0)"/>
<path d="" fill="#01C3FE" transform="translate(0,0)"/>
<path d="M0 0 C2 1 2 1 2 1 Z " fill="#03C1FF" transform="translate(673,336)"/>
<path d="" fill="#05BFFB" transform="translate(0,0)"/>
<path d="M0 0 C2 1 2 1 2 1 Z " fill="#00C4FE" transform="translate(688,247)"/>
<path d="M0 0 C2 1 2 1 2 1 Z " fill="#00BEFB" transform="translate(714,224)"/>
<path d="M0 0 C2 1 2 1 2 1 Z " fill="#01BAFE" transform="translate(372,223)"/>
<path d="M0 0 C2 1 2 1 2 1 Z " fill="#00C1FE" transform="translate(628,215)"/>
<path d="M0 0 C2 1 2 1 2 1 Z " fill="#02BFFC" transform="translate(689,208)"/>
<path d="M0 0 C2 1 2 1 2 1 Z " fill="#00C0FE" transform="translate(568,199)"/>
<path d="" fill="#01C0FA" transform="translate(0,0)"/>
<path d="M0 0 C2 1 2 1 2 1 Z " fill="#01BEFC" transform="translate(425,168)"/>
<path d="" fill="#586569" transform="translate(0,0)"/>
<path d="" fill="#595759" transform="translate(0,0)"/>
<path d="" fill="#5A7584" transform="translate(0,0)"/>
<path d="" fill="#03BCF9" transform="translate(0,0)"/>
<path d="" fill="#03BCF9" transform="translate(0,0)"/>
<path d="" fill="#03BAF9" transform="translate(0,0)"/>
<path d="" fill="#00B8F8" transform="translate(0,0)"/>
<path d="" fill="#03BCF9" transform="translate(0,0)"/>
<path d="" fill="#03BDF9" transform="translate(0,0)"/>
<path d="" fill="#03B8F7" transform="translate(0,0)"/>
<path d="" fill="#03B8FA" transform="translate(0,0)"/>
<path d="" fill="#03B6F8" transform="translate(0,0)"/>
<path d="" fill="#01BFF8" transform="translate(0,0)"/>
<path d="" fill="#04C1F9" transform="translate(0,0)"/>
<path d="" fill="#01C1F8" transform="translate(0,0)"/>
<path d="" fill="#03B1F6" transform="translate(0,0)"/>
<path d="" fill="#06B0F9" transform="translate(0,0)"/>
<path d="" fill="#04C1FA" transform="translate(0,0)"/>
<path d="" fill="#06BDF9" transform="translate(0,0)"/>
<path d="" fill="#03A9F8" transform="translate(0,0)"/>
<path d="" fill="#03ABF8" transform="translate(0,0)"/>
<path d="" fill="#02C2FC" transform="translate(0,0)"/>
<path d="" fill="#07A7F6" transform="translate(0,0)"/>
<path d="" fill="#00C6FF" transform="translate(0,0)"/>
<path d="" fill="#00B6FA" transform="translate(0,0)"/>
<path d="" fill="#05ABF3" transform="translate(0,0)"/>
<path d="" fill="#02C7FD" transform="translate(0,0)"/>
<path d="" fill="#00C7FB" transform="translate(0,0)"/>
<path d="" fill="#01C3F9" transform="translate(0,0)"/>
<path d="" fill="#04A7F4" transform="translate(0,0)"/>
<path d="" fill="#00CAFE" transform="translate(0,0)"/>
<path d="" fill="#00C9FD" transform="translate(0,0)"/>
<path d="" fill="#02A1F5" transform="translate(0,0)"/>
<path d="" fill="#01C3FC" transform="translate(0,0)"/>
<path d="" fill="#00C0F9" transform="translate(0,0)"/>
<path d="" fill="#00ABF8" transform="translate(0,0)"/>
<path d="" fill="#01C8FF" transform="translate(0,0)"/>
<path d="" fill="#07A1F4" transform="translate(0,0)"/>
<path d="" fill="#06C7FD" transform="translate(0,0)"/>
<path d="" fill="#00CCFC" transform="translate(0,0)"/>
<path d="" fill="#08A1F2" transform="translate(0,0)"/>
<path d="" fill="#01C8FF" transform="translate(0,0)"/>
<path d="" fill="#00CCFF" transform="translate(0,0)"/>
<path d="" fill="#00A4F9" transform="translate(0,0)"/>
<path d="" fill="#099FF4" transform="translate(0,0)"/>
<path d="" fill="#09A2F5" transform="translate(0,0)"/>
<path d="" fill="#00CBFC" transform="translate(0,0)"/>
<path d="" fill="#0A9EF5" transform="translate(0,0)"/>
<path d="" fill="#02C9FF" transform="translate(0,0)"/>
<path d="" fill="#00A0FA" transform="translate(0,0)"/>
<path d="" fill="#05A0F3" transform="translate(0,0)"/>
<path d="" fill="#0E9EF1" transform="translate(0,0)"/>
<path d="" fill="#03A3FC" transform="translate(0,0)"/>
<path d="" fill="#06C4FE" transform="translate(0,0)"/>
<path d="" fill="#08C4FD" transform="translate(0,0)"/>
<path d="" fill="#0AA0F7" transform="translate(0,0)"/>
<path d="" fill="#03C5FB" transform="translate(0,0)"/>
<path d="" fill="#0BA1F4" transform="translate(0,0)"/>
<path d="" fill="#00C9FD" transform="translate(0,0)"/>
<path d="" fill="#06C7FC" transform="translate(0,0)"/>
<path d="" fill="#05BCFA" transform="translate(0,0)"/>
<path d="" fill="#01BFF9" transform="translate(0,0)"/>
<path d="" fill="#05B6F8" transform="translate(0,0)"/>
<path d="" fill="#03BEFA" transform="translate(0,0)"/>
<path d="" fill="#03B8FC" transform="translate(0,0)"/>
<path d="" fill="#05B5FA" transform="translate(0,0)"/>
<path d="" fill="#05B5F8" transform="translate(0,0)"/>
<path d="" fill="#0AA0F8" transform="translate(0,0)"/>
<path d="" fill="#03B6FC" transform="translate(0,0)"/>
<path d="" fill="#07B7FD" transform="translate(0,0)"/>
<path d="" fill="#05B7FB" transform="translate(0,0)"/>
<path d="" fill="#05B6FC" transform="translate(0,0)"/>
<path d="" fill="#03B6FA" transform="translate(0,0)"/>
<path d="" fill="#05B7FC" transform="translate(0,0)"/>
<path d="" fill="#0EA1F2" transform="translate(0,0)"/>
<path d="" fill="#0FA2F3" transform="translate(0,0)"/>
<path d="" fill="#01B7FE" transform="translate(0,0)"/>
<path d="" fill="#0AC3FC" transform="translate(0,0)"/>
<path d="" fill="#09C1FA" transform="translate(0,0)"/>
<path d="" fill="#02C7FF" transform="translate(0,0)"/>
<path d="" fill="#03C8FC" transform="translate(0,0)"/>
<path d="" fill="#00C1FD" transform="translate(0,0)"/>
<path d="" fill="#04C4FE" transform="translate(0,0)"/>
<path d="" fill="#00C7FE" transform="translate(0,0)"/>
<path d="" fill="#02A5FC" transform="translate(0,0)"/>
<path d="" fill="#13A3F1" transform="translate(0,0)"/>
<path d="" fill="#00B6F8" transform="translate(0,0)"/>
<path d="" fill="#0CA3F6" transform="translate(0,0)"/>
<path d="" fill="#03B3FB" transform="translate(0,0)"/>
<path d="" fill="#00C3FF" transform="translate(0,0)"/>
<path d="" fill="#05A4FB" transform="translate(0,0)"/>
<path d="" fill="#00B7F8" transform="translate(0,0)"/>
<path d="" fill="#00B1FC" transform="translate(0,0)"/>
<path d="" fill="#02B6FE" transform="translate(0,0)"/>
<path d="" fill="#04B0FB" transform="translate(0,0)"/>
<path d="" fill="#02CBFF" transform="translate(0,0)"/>
<path d="" fill="#0CA9F4" transform="translate(0,0)"/>
<path d="" fill="#00B1F6" transform="translate(0,0)"/>
<path d="" fill="#04B0F9" transform="translate(0,0)"/>
<path d="" fill="#00B8F8" transform="translate(0,0)"/>
<path d="" fill="#02B3FD" transform="translate(0,0)"/>
<path d="" fill="#08B0FC" transform="translate(0,0)"/>
<path d="" fill="#0CA7F3" transform="translate(0,0)"/>
<path d="" fill="#00C1FD" transform="translate(0,0)"/>
<path d="" fill="#02C3FF" transform="translate(0,0)"/>
<path d="" fill="#07B3FA" transform="translate(0,0)"/>
<path d="" fill="#07C6FC" transform="translate(0,0)"/>
<path d="" fill="#08B0FA" transform="translate(0,0)"/>
<path d="" fill="#06B2FD" transform="translate(0,0)"/>
<path d="" fill="#00C3FE" transform="translate(0,0)"/>
<path d="" fill="#07A7F3" transform="translate(0,0)"/>
<path d="" fill="#00C4FB" transform="translate(0,0)"/>
<path d="" fill="#00BEFF" transform="translate(0,0)"/>
<path d="" fill="#00BDFF" transform="translate(0,0)"/>
<path d="" fill="#02C2FC" transform="translate(0,0)"/>
<path d="" fill="#08ACF8" transform="translate(0,0)"/>
<path d="" fill="#00C2FC" transform="translate(0,0)"/>
<path d="" fill="#02CAFD" transform="translate(0,0)"/>
<path d="" fill="#00BAFA" transform="translate(0,0)"/>
<path d="" fill="#05C7FD" transform="translate(0,0)"/>
<path d="" fill="#02BBFD" transform="translate(0,0)"/>
<path d="" fill="#02B5FC" transform="translate(0,0)"/>
<path d="" fill="#00BFFD" transform="translate(0,0)"/>
<path d="" fill="#01C3FC" transform="translate(0,0)"/>
<path d="" fill="#08C4FE" transform="translate(0,0)"/>
<path d="" fill="#03BBFD" transform="translate(0,0)"/>
<path d="" fill="#03C4FF" transform="translate(0,0)"/>
<path d="" fill="#02C2FD" transform="translate(0,0)"/>
<path d="" fill="#0EAAF8" transform="translate(0,0)"/>
<path d="" fill="#07AEF8" transform="translate(0,0)"/>
<path d="" fill="#0DB3F9" transform="translate(0,0)"/>
<path d="" fill="#0EAFF8" transform="translate(0,0)"/>
<path d="" fill="#07C5FD" transform="translate(0,0)"/>
<path d="" fill="#10A5F5" transform="translate(0,0)"/>
<path d="" fill="#00B8F7" transform="translate(0,0)"/>
<path d="" fill="#00ABFA" transform="translate(0,0)"/>
<path d="" fill="#17A5F2" transform="translate(0,0)"/>
<path d="" fill="#02ACFD" transform="translate(0,0)"/>
<path d="" fill="#02C4FC" transform="translate(0,0)"/>
<path d="" fill="#06C1FD" transform="translate(0,0)"/>
<path d="" fill="#02C4FF" transform="translate(0,0)"/>
<path d="" fill="#07C2FF" transform="translate(0,0)"/>
<path d="" fill="#04BDFD" transform="translate(0,0)"/>
<path d="" fill="#01C5FD" transform="translate(0,0)"/>
<path d="" fill="#08C2FC" transform="translate(0,0)"/>
<path d="" fill="#00C5FC" transform="translate(0,0)"/>
<path d="" fill="#06C3FA" transform="translate(0,0)"/>
<path d="" fill="#00C1FD" transform="translate(0,0)"/>
<path d="" fill="#00AEFA" transform="translate(0,0)"/>
<path d="" fill="#0EA8F3" transform="translate(0,0)"/>
<path d="" fill="#00C6FE" transform="translate(0,0)"/>
<path d="" fill="#04BFFC" transform="translate(0,0)"/>
<path d="" fill="#05BEFB" transform="translate(0,0)"/>
<path d="" fill="#00C6FF" transform="translate(0,0)"/>
<path d="" fill="#03C4FF" transform="translate(0,0)"/>
<path d="" fill="#00C2FC" transform="translate(0,0)"/>
<path d="" fill="#05BBFA" transform="translate(0,0)"/>
<path d="" fill="#07C0FC" transform="translate(0,0)"/>
<path d="" fill="#09A6F3" transform="translate(0,0)"/>
<path d="" fill="#01C5FD" transform="translate(0,0)"/>
<path d="" fill="#03BEFC" transform="translate(0,0)"/>
<path d="" fill="#02BEFB" transform="translate(0,0)"/>
<path d="" fill="#07C4FC" transform="translate(0,0)"/>
<path d="" fill="#0DA9F5" transform="translate(0,0)"/>
<path d="" fill="#00C6FC" transform="translate(0,0)"/>
<path d="" fill="#00BCFC" transform="translate(0,0)"/>
<path d="" fill="#01C4FB" transform="translate(0,0)"/>
<path d="" fill="#0DA7F3" transform="translate(0,0)"/>
<path d="" fill="#00C9FB" transform="translate(0,0)"/>
<path d="" fill="#05BEFC" transform="translate(0,0)"/>
<path d="" fill="#00BEFC" transform="translate(0,0)"/>
<path d="" fill="#08A9F3" transform="translate(0,0)"/>
<path d="" fill="#03C3FE" transform="translate(0,0)"/>
<path d="" fill="#01C6FF" transform="translate(0,0)"/>
<path d="" fill="#05C4FB" transform="translate(0,0)"/>
<path d="" fill="#607984" transform="translate(0,0)"/>
<path d="" fill="#00CAFB" transform="translate(0,0)"/>
<path d="" fill="#01C3FF" transform="translate(0,0)"/>
<path d="" fill="#03BFFA" transform="translate(0,0)"/>
<path d="" fill="#07C0FB" transform="translate(0,0)"/>
<path d="" fill="#08A8F3" transform="translate(0,0)"/>
<path d="" fill="#08AEF6" transform="translate(0,0)"/>
<path d="" fill="#00C3FE" transform="translate(0,0)"/>
<path d="" fill="#06C3FC" transform="translate(0,0)"/>
<path d="" fill="#0DA8F4" transform="translate(0,0)"/>
<path d="" fill="#00ADFA" transform="translate(0,0)"/>
<path d="" fill="#00C5FC" transform="translate(0,0)"/>
<path d="" fill="#10ACF3" transform="translate(0,0)"/>
<path d="" fill="#06C4FE" transform="translate(0,0)"/>
<path d="" fill="#07C1FB" transform="translate(0,0)"/>
<path d="" fill="#05BEFC" transform="translate(0,0)"/>
<path d="" fill="#00C8FB" transform="translate(0,0)"/>
<path d="" fill="#06C0FC" transform="translate(0,0)"/>
<path d="" fill="#00C3FD" transform="translate(0,0)"/>
<path d="" fill="#07AFF8" transform="translate(0,0)"/>
<path d="" fill="#08AFF6" transform="translate(0,0)"/>
<path d="" fill="#01C2FD" transform="translate(0,0)"/>
<path d="" fill="#05B0F3" transform="translate(0,0)"/>
<path d="" fill="#697380" transform="translate(0,0)"/>
<path d="" fill="#05B5F6" transform="translate(0,0)"/>
<path d="" fill="#08B2F7" transform="translate(0,0)"/>
<path d="" fill="#03C4FC" transform="translate(0,0)"/>
<path d="" fill="#07B2F6" transform="translate(0,0)"/>
<path d="" fill="#00B9F7" transform="translate(0,0)"/>
<path d="" fill="#08B7FA" transform="translate(0,0)"/>
<path d="" fill="#03C4FD" transform="translate(0,0)"/>
<path d="" fill="#07C4FF" transform="translate(0,0)"/>
<path d="" fill="#00C1FF" transform="translate(0,0)"/>
<path d="" fill="#02B9F9" transform="translate(0,0)"/>
<path d="" fill="#02B4F7" transform="translate(0,0)"/>
<path d="" fill="#04BFFD" transform="translate(0,0)"/>
<path d="" fill="#00B8FB" transform="translate(0,0)"/>
<path d="" fill="#00B7FB" transform="translate(0,0)"/>
<path d="" fill="#02C3FF" transform="translate(0,0)"/>
<path d="" fill="#00B9FC" transform="translate(0,0)"/>
<path d="" fill="#01BEFB" transform="translate(0,0)"/>
<path d="" fill="#02B7F7" transform="translate(0,0)"/>
<path d="" fill="#01C1FF" transform="translate(0,0)"/>
<path d="" fill="#01BBFC" transform="translate(0,0)"/>
<path d="" fill="#00C4FE" transform="translate(0,0)"/>
<path d="" fill="#00BDFC" transform="translate(0,0)"/>
<path d="" fill="#01BEFC" transform="translate(0,0)"/>
<path d="" fill="#05C1FD" transform="translate(0,0)"/>
<path d="" fill="#05B9F8" transform="translate(0,0)"/>
<path d="" fill="#05BBFD" transform="translate(0,0)"/>
<path d="" fill="#00BAFD" transform="translate(0,0)"/>
<path d="" fill="#05BBFD" transform="translate(0,0)"/>
<path d="" fill="#02C1FD" transform="translate(0,0)"/>
<path d="" fill="#06C2FD" transform="translate(0,0)"/>
<path d="" fill="#00C0FB" transform="translate(0,0)"/>
<path d="" fill="#04BFFB" transform="translate(0,0)"/>
<path d="" fill="#00C3FE" transform="translate(0,0)"/>
<path d="" fill="#5B5E5F" transform="translate(0,0)"/>
<path d="" fill="#585B5D" transform="translate(0,0)"/>
</svg>
